<mxfile host="app.diagrams.net" modified="2022-01-24T20:59:15.477Z" agent="5.0 (Windows)" etag="rdYsb2p1Qoxf5Fqbi1xY" version="16.4.6" type="github">
  <diagram id="h17sIJNZOyWAJB-0u78N" name="Page-1">
    <mxGraphModel dx="920" dy="852" grid="1" gridSize="10" guides="1" tooltips="1" connect="1" arrows="1" fold="1" page="1" pageScale="1" pageWidth="850" pageHeight="1100" math="0" shadow="0">
      <root>
        <mxCell id="0" />
        <mxCell id="1" parent="0" />
        <mxCell id="x4BZJ7AacXYZLT2NtnRH-8" value="" style="rounded=1;whiteSpace=wrap;html=1;dashed=1;" vertex="1" parent="1">
          <mxGeometry x="310" y="70" width="360" height="290" as="geometry" />
        </mxCell>
        <mxCell id="x4BZJ7AacXYZLT2NtnRH-9" value="" style="rounded=1;whiteSpace=wrap;html=1;dashed=1;" vertex="1" parent="1">
          <mxGeometry x="330" y="240" width="320" height="100" as="geometry" />
        </mxCell>
        <mxCell id="x4BZJ7AacXYZLT2NtnRH-12" style="edgeStyle=orthogonalEdgeStyle;rounded=0;orthogonalLoop=1;jettySize=auto;html=1;entryX=0;entryY=0.5;entryDx=0;entryDy=0;entryPerimeter=0;strokeColor=default;endArrow=none;endFill=0;" edge="1" parent="1" source="x4BZJ7AacXYZLT2NtnRH-2" target="x4BZJ7AacXYZLT2NtnRH-5">
          <mxGeometry relative="1" as="geometry">
            <Array as="points">
              <mxPoint x="220" y="480" />
            </Array>
          </mxGeometry>
        </mxCell>
        <mxCell id="x4BZJ7AacXYZLT2NtnRH-2" value="User" style="rounded=0;whiteSpace=wrap;html=1;" vertex="1" parent="1">
          <mxGeometry x="160" y="260" width="120" height="60" as="geometry" />
        </mxCell>
        <mxCell id="x4BZJ7AacXYZLT2NtnRH-13" style="edgeStyle=orthogonalEdgeStyle;rounded=0;orthogonalLoop=1;jettySize=auto;html=1;entryX=0.145;entryY=0;entryDx=0;entryDy=4.35;entryPerimeter=0;endArrow=none;endFill=0;strokeColor=default;" edge="1" parent="1" source="x4BZJ7AacXYZLT2NtnRH-3" target="x4BZJ7AacXYZLT2NtnRH-5">
          <mxGeometry relative="1" as="geometry" />
        </mxCell>
        <mxCell id="x4BZJ7AacXYZLT2NtnRH-3" value="User details" style="rounded=0;whiteSpace=wrap;html=1;" vertex="1" parent="1">
          <mxGeometry x="360" y="260" width="120" height="60" as="geometry" />
        </mxCell>
        <mxCell id="x4BZJ7AacXYZLT2NtnRH-14" style="edgeStyle=orthogonalEdgeStyle;rounded=0;orthogonalLoop=1;jettySize=auto;html=1;entryX=0.855;entryY=0;entryDx=0;entryDy=4.35;entryPerimeter=0;endArrow=none;endFill=0;strokeColor=default;" edge="1" parent="1" source="x4BZJ7AacXYZLT2NtnRH-4" target="x4BZJ7AacXYZLT2NtnRH-5">
          <mxGeometry relative="1" as="geometry" />
        </mxCell>
        <mxCell id="x4BZJ7AacXYZLT2NtnRH-4" value="Song Details" style="rounded=0;whiteSpace=wrap;html=1;" vertex="1" parent="1">
          <mxGeometry x="520" y="260" width="120" height="60" as="geometry" />
        </mxCell>
        <mxCell id="x4BZJ7AacXYZLT2NtnRH-5" value="Database" style="shape=cylinder3;whiteSpace=wrap;html=1;boundedLbl=1;backgroundOutline=1;size=15;" vertex="1" parent="1">
          <mxGeometry x="470" y="440" width="60" height="80" as="geometry" />
        </mxCell>
        <mxCell id="x4BZJ7AacXYZLT2NtnRH-15" style="edgeStyle=orthogonalEdgeStyle;rounded=0;orthogonalLoop=1;jettySize=auto;html=1;entryX=0.5;entryY=0;entryDx=0;entryDy=0;endArrow=none;endFill=0;strokeColor=default;" edge="1" parent="1" source="x4BZJ7AacXYZLT2NtnRH-7" target="x4BZJ7AacXYZLT2NtnRH-3">
          <mxGeometry relative="1" as="geometry" />
        </mxCell>
        <mxCell id="x4BZJ7AacXYZLT2NtnRH-16" style="edgeStyle=orthogonalEdgeStyle;rounded=0;orthogonalLoop=1;jettySize=auto;html=1;entryX=0.5;entryY=0;entryDx=0;entryDy=0;endArrow=none;endFill=0;strokeColor=default;" edge="1" parent="1" source="x4BZJ7AacXYZLT2NtnRH-7" target="x4BZJ7AacXYZLT2NtnRH-4">
          <mxGeometry relative="1" as="geometry" />
        </mxCell>
        <mxCell id="x4BZJ7AacXYZLT2NtnRH-7" value="Collaborative Filtering System" style="rounded=0;whiteSpace=wrap;html=1;" vertex="1" parent="1">
          <mxGeometry x="440" y="130" width="120" height="60" as="geometry" />
        </mxCell>
        <mxCell id="x4BZJ7AacXYZLT2NtnRH-11" style="edgeStyle=orthogonalEdgeStyle;rounded=0;orthogonalLoop=1;jettySize=auto;html=1;" edge="1" parent="1" source="x4BZJ7AacXYZLT2NtnRH-10" target="x4BZJ7AacXYZLT2NtnRH-7">
          <mxGeometry relative="1" as="geometry" />
        </mxCell>
        <mxCell id="x4BZJ7AacXYZLT2NtnRH-10" value="Recommend songs" style="ellipse;whiteSpace=wrap;html=1;" vertex="1" parent="1">
          <mxGeometry x="730" y="140" width="90" height="40" as="geometry" />
        </mxCell>
        <mxCell id="x4BZJ7AacXYZLT2NtnRH-17" value="Music Recommendation system" style="text;html=1;strokeColor=none;fillColor=none;spacing=5;spacingTop=-20;whiteSpace=wrap;overflow=hidden;rounded=0;" vertex="1" parent="1">
          <mxGeometry x="405" y="90" width="190" height="10" as="geometry" />
        </mxCell>
      </root>
    </mxGraphModel>
  </diagram>
</mxfile>
